M48
;DRILL file {KiCad (5.0.0-3-g5ebb6b6)} date Thursday, September 20, 2018 at 08:58:12 PM
;FORMAT={-:-/ absolute / inch / decimal}
FMAT,2
INCH,TZ
T1C0.0157
T2C0.0394
T3C0.1260
%
G90
G05
M72
T1
X5.59Y-2.47
X5.65Y-4.92
X5.74Y-4.18
X5.78Y-3.58
X5.8Y-4.34
X5.81Y-3.09
X5.83Y-4.65
X5.92Y-4.37
X5.97Y-4.2
X5.97Y-4.86
X5.98Y-2.48
X6.07Y-3.94
X6.09Y-3.54
X6.1Y-4.47
X6.13Y-4.8
X6.16Y-2.87
X6.18Y-4.19
X6.23Y-2.5
X6.23Y-3.15
X6.23Y-3.83
X6.23Y-4.45
X6.26Y-5.03
X6.32Y-3.74
X6.32Y-4.37
X6.32Y-4.52
X6.33Y-2.38
X6.33Y-3.08
X6.47Y-2.94
X6.47Y-3.58
X6.47Y-4.27
X6.47Y-4.89
X6.48Y-4.95
X6.5Y-3.23
X6.51Y-3.91
X6.52Y-2.45
X6.52Y-2.59
X6.52Y-3.14
X6.52Y-3.82
X6.52Y-4.51
X6.53Y-3.43
X6.53Y-4.73
X6.55Y-4.1
X6.56Y-2.75
X6.6Y-4.43
X6.76Y-2.7
X6.76Y-3.57
X6.76Y-4.22
X6.77Y-3.33
X6.77Y-4.82
X6.78Y-2.96
X6.79Y-3.98
X6.87Y-4.55
X6.88Y-4.99
X6.97Y-2.4
X6.97Y-2.8
X6.98Y-3.82
X7.03Y-4.31
X7.06Y-2.63
X7.08Y-3.33
X7.09Y-3.61
X7.1Y-2.89
X7.11Y-4.05
X7.11Y-4.59
X7.12Y-3.8
T2
X7.2Y-2.73
X7.2Y-2.8391
X7.2Y-2.9481
X7.2Y-3.0572
X7.2Y-3.1662
X7.2Y-3.2753
X7.2Y-3.3843
X7.2Y-3.4934
X7.2Y-3.6024
X7.2Y-3.7115
X7.2Y-3.8206
X7.2Y-3.9296
X7.2Y-4.0387
X7.2Y-4.1477
X7.2Y-4.2568
X7.2Y-4.3658
X7.2Y-4.4749
X7.2Y-4.5839
X7.2Y-4.693
X7.3118Y-2.7845
X7.3118Y-2.8936
X7.3118Y-3.0026
X7.3118Y-3.1117
X7.3118Y-3.2207
X7.3118Y-3.3298
X7.3118Y-3.4389
X7.3118Y-3.5479
X7.3118Y-3.657
X7.3118Y-3.766
X7.3118Y-3.8751
X7.3118Y-3.9841
X7.3118Y-4.0932
X7.3118Y-4.2022
X7.3118Y-4.3113
X7.3118Y-4.4204
X7.3118Y-4.5294
X7.3118Y-4.6385
X5.55Y-2.76
X5.55Y-2.86
X5.55Y-2.96
X5.55Y-3.06
X5.55Y-3.16
X5.55Y-3.26
X5.55Y-3.36
X5.55Y-3.46
X5.55Y-3.56
X5.55Y-3.66
X5.55Y-3.76
X5.55Y-3.86
X5.55Y-3.96
X5.55Y-4.06
X5.55Y-4.16
X5.55Y-4.26
X5.55Y-4.36
X5.55Y-4.46
X5.55Y-4.56
X5.55Y-4.66
X5.65Y-2.76
X5.65Y-2.86
X5.65Y-2.96
X5.65Y-3.06
X5.65Y-3.16
X5.65Y-3.26
X5.65Y-3.36
X5.65Y-3.46
X5.65Y-3.56
X5.65Y-3.66
X5.65Y-3.76
X5.65Y-3.86
X5.65Y-3.96
X5.65Y-4.06
X5.65Y-4.16
X5.65Y-4.26
X5.65Y-4.36
X5.65Y-4.46
X5.65Y-4.56
X5.65Y-4.66
T3
X7.2559Y-2.4615
X7.2559Y-4.9615
T0
M30
